<mxfile host="app.diagrams.net" modified="2023-11-01T02:59:16.298Z" agent="Mozilla/5.0 (Windows NT 10.0; Win64; x64) AppleWebKit/537.36 (KHTML, like Gecko) Chrome/118.0.0.0 Safari/537.36 Edg/118.0.2088.69" etag="AyRf6t2_FTLgOxzTCCSQ" version="22.0.8" type="github">
  <diagram name="第 1 页" id="OsG0Rh_8aH5Wq2_sc4hn">
    <mxGraphModel dx="946" dy="639" grid="1" gridSize="10" guides="1" tooltips="1" connect="1" arrows="1" fold="1" page="1" pageScale="1" pageWidth="827" pageHeight="1169" math="0" shadow="0">
      <root>
        <mxCell id="0" />
        <mxCell id="1" parent="0" />
        <mxCell id="iQOJEw4fVsrXt2nhrL_W-1" value="" style="rounded=0;whiteSpace=wrap;html=1;fillColor=#f8cecc;strokeColor=#b85450;" parent="1" vertex="1">
          <mxGeometry x="270" y="60" width="120" height="60" as="geometry" />
        </mxCell>
        <mxCell id="iQOJEw4fVsrXt2nhrL_W-2" value="" style="ellipse;whiteSpace=wrap;html=1;fillColor=#ffe6cc;strokeColor=#d79b00;" parent="1" vertex="1">
          <mxGeometry x="520" y="50" width="120" height="80" as="geometry" />
        </mxCell>
        <mxCell id="PAA3uSuMPSOfRjTuCzyV-1" value="" style="ellipse;whiteSpace=wrap;html=1;" vertex="1" parent="1">
          <mxGeometry x="40" y="50" width="120" height="80" as="geometry" />
        </mxCell>
        <mxCell id="AcLqitXbma-v69zoWQ_R-1" value="" style="ellipse;shape=cloud;whiteSpace=wrap;html=1;" vertex="1" parent="1">
          <mxGeometry x="414" y="270" width="120" height="80" as="geometry" />
        </mxCell>
        <mxCell id="PAA3uSuMPSOfRjTuCzyV-2" value="" style="shape=parallelogram;perimeter=parallelogramPerimeter;whiteSpace=wrap;html=1;fixedSize=1;" vertex="1" parent="1">
          <mxGeometry x="190" y="220" width="120" height="60" as="geometry" />
        </mxCell>
        <mxCell id="PAA3uSuMPSOfRjTuCzyV-3" value="Actor" style="shape=umlActor;verticalLabelPosition=bottom;verticalAlign=top;html=1;outlineConnect=0;" vertex="1" parent="1">
          <mxGeometry x="440" y="290" width="30" height="60" as="geometry" />
        </mxCell>
        <mxCell id="AcLqitXbma-v69zoWQ_R-2" value="" style="shape=callout;whiteSpace=wrap;html=1;perimeter=calloutPerimeter;" vertex="1" parent="1">
          <mxGeometry x="20" y="250" width="120" height="80" as="geometry" />
        </mxCell>
        <mxCell id="AcLqitXbma-v69zoWQ_R-3" value="" style="shape=xor;whiteSpace=wrap;html=1;" vertex="1" parent="1">
          <mxGeometry x="260" y="420" width="60" height="80" as="geometry" />
        </mxCell>
        <mxCell id="PAA3uSuMPSOfRjTuCzyV-4" value="Actor" style="shape=umlActor;verticalLabelPosition=bottom;verticalAlign=top;html=1;outlineConnect=0;" vertex="1" parent="1">
          <mxGeometry x="260" y="330" width="30" height="60" as="geometry" />
        </mxCell>
      </root>
    </mxGraphModel>
  </diagram>
</mxfile>
